# xmcd
#
# Track frame offsets: 
#        150
#        14182
#        29500
#        46394
#        61026
#
# Disc length: 1020 seconds
#
# Revision: 0
# Processed by: cddbd v1.5.2PL0 Copyright (c) Steve Scherf et al.
# Submitted via: ExactAudioCopyFreeDBPlugin 1.0
#
DISCID=3e03fa05
DTITLE=Luke Combs - The Prequel
DYEAR=2019
DGENRE=Country
TTITLE0=Beer Never Broke My Heart
TTITLE1=Refrigerator Door
TTITLE2=Even Though I'm Leaving
TTITLE3=Lovin' On You
TTITLE4=Moon Over Mexico
EXTD=
EXTT0=
EXTT1=
EXTT2=
EXTT3=
EXTT4=
PLAYORDER=
